  <svg width="41" height="41" viewBox="0 0 41 41" fill="none" xmlns="http://www.w3.org/2000/svg">
      <circle opacity="0.1" cx="20.5" cy="20.5" r="20.5" fill="#00b5e5"></circle>
      <path d="M27.5938 13H14.4062C13.6308 13 13 13.6308 13 14.4062V16.75H29V14.4062C29 13.6308 28.3692 13 27.5938 13ZM16 15.3438H15.375C15.1161 15.3438 14.9062 15.1339 14.9062 14.875C14.9062 14.6161 15.1161 14.4062 15.375 14.4062H16C16.2589 14.4062 16.4688 14.6161 16.4688 14.875C16.4688 15.1339 16.2589 15.3438 16 15.3438ZM18.5 15.3438H17.875C17.6161 15.3438 17.4062 15.1339 17.4062 14.875C17.4062 14.6161 17.6161 14.4062 17.875 14.4062H18.5C18.7589 14.4062 18.9688 14.6161 18.9688 14.875C18.9688 15.1339 18.7589 15.3438 18.5 15.3438ZM21 15.3438H20.375C20.1161 15.3438 19.9062 15.1339 19.9062 14.875C19.9062 14.6161 20.1161 14.4062 20.375 14.4062H21C21.2589 14.4062 21.4688 14.6161 21.4688 14.875C21.4688 15.1339 21.2589 15.3438 21 15.3438Z" fill="#00b5e5"></path>
      <path d="M16.5134 24.0614C16.5134 23.7699 16.2762 23.5327 15.9847 23.5327C15.9847 23.5327 15.3156 23.5334 15.231 23.5337V24.5924C15.494 24.5913 15.8477 24.59 15.9847 24.59C16.2762 24.59 16.5134 24.3529 16.5134 24.0614Z" fill="#00b5e5"></path>
      <path d="M16.2327 22.5003C16.2327 22.2761 16.0504 22.0938 15.8262 22.0938H15.231V22.9077C15.231 22.9077 15.7594 22.9069 15.8262 22.9069C16.0504 22.9068 16.2327 22.7245 16.2327 22.5003Z" fill="#00b5e5"></path>
      <path d="M21.3577 24.5938C22.048 24.5938 22.6077 24.0341 22.6077 23.3438C22.6077 22.6534 22.048 22.0938 21.3577 22.0938C20.6673 22.0938 20.1077 22.6534 20.1077 23.3438C20.1077 24.0341 20.6673 24.5938 21.3577 24.5938Z" fill="#00b5e5"></path>
      <path d="M13 27.5938C13 28.3692 13.6308 29 14.4062 29H27.5938C28.3692 29 29 28.3692 29 27.5938V17.6875H13V27.5938ZM25.7327 21.4687C26.1083 21.4687 26.4709 21.5794 26.7812 21.789C26.9242 21.8857 26.9618 22.0799 26.8652 22.2229C26.7686 22.3659 26.5743 22.4035 26.4313 22.3069C26.2248 22.1674 25.9832 22.0936 25.7327 22.0936C25.0434 22.0936 24.4827 22.6544 24.4827 23.3436C24.4827 24.0329 25.0434 24.5936 25.7327 24.5936C26.3616 24.5936 26.6568 24.1385 26.742 23.6561H26.1467C25.9741 23.6561 25.8342 23.5162 25.8342 23.3436C25.8342 23.171 25.9741 23.0311 26.1467 23.0311H27.0815C27.2541 23.0311 27.394 23.171 27.394 23.3436C27.394 24.4476 26.7108 25.2186 25.7327 25.2186C24.6988 25.2186 23.8577 24.3775 23.8577 23.3436C23.8577 22.3098 24.6988 21.4687 25.7327 21.4687ZM21.3577 21.4687C22.3916 21.4687 23.2327 22.3098 23.2327 23.3437C23.2327 24.3775 22.3916 25.2187 21.3577 25.2187C20.3238 25.2187 19.4827 24.3775 19.4827 23.3437C19.4827 22.3098 20.3238 21.4687 21.3577 21.4687ZM17.7634 21.7812C17.7634 21.6086 17.9033 21.4687 18.0759 21.4687C18.2485 21.4687 18.3884 21.6086 18.3884 21.7812V24.5937C18.6001 24.5936 18.8948 24.5925 19.1685 24.591H19.1702C19.342 24.591 19.4818 24.7298 19.4827 24.9018C19.4837 25.0743 19.3446 25.215 19.172 25.216C18.8171 25.218 18.575 25.2188 18.4087 25.2188C18.0656 25.2188 18.0454 25.2153 18.0231 25.2115C17.8731 25.1858 17.7634 25.0557 17.7634 24.9035V21.7812ZM14.606 21.7812C14.606 21.6086 14.7459 21.4687 14.9185 21.4687H15.8263C16.395 21.4687 16.8578 21.9314 16.8578 22.5002C16.8578 22.7326 16.7805 22.9472 16.6504 23.1199C16.9454 23.3291 17.1384 23.6729 17.1384 24.0613C17.1384 24.6974 16.6209 25.2149 15.9848 25.2149C15.7577 25.2149 14.9282 25.2186 14.9199 25.2187C14.9194 25.2187 14.919 25.2187 14.9185 25.2187C14.8359 25.2187 14.7566 25.1859 14.698 25.1276C14.6391 25.069 14.606 24.9893 14.606 24.9062V21.7812H14.606Z" fill="#00b5e5"></path>
  </svg>
