<svg width="41" height="41" viewBox="0 0 41 41" fill="none" xmlns="http://www.w3.org/2000/svg">
    <circle opacity="0.1" cx="20.5" cy="20.5" r="20.5" fill="#00b5e5"></circle>
    <path d="M31 23.5352C31 21.0534 29.5762 18.8384 27.4438 17.761C27.3776 22.5196 23.5195 26.3776 18.7609 26.4438C19.8383 28.5763 22.0533 30.0001 24.5352 30.0001C25.6988 30.0001 26.8304 29.6902 27.8246 29.1013L30.9718 29.9718L30.1013 26.8247C30.6901 25.8304 31 24.6989 31 23.5352Z" fill="#00b5e5"></path>
    <path d="M26.2734 17.6367C26.2734 13.4258 22.8477 10 18.6367 10C14.4258 10 11 13.4258 11 17.6367C11 19.0091 11.3653 20.3453 12.059 21.5184L11.0281 25.2452L14.755 24.2145C15.9281 24.9081 17.2643 25.2734 18.6367 25.2734C22.8477 25.2734 26.2734 21.8477 26.2734 17.6367ZM17.4648 15.8594H16.293C16.293 14.567 17.3443 13.5156 18.6367 13.5156C19.9291 13.5156 20.9805 14.567 20.9805 15.8594C20.9805 16.5154 20.7028 17.1458 20.2183 17.589L19.2227 18.5002V19.4141H18.0508V17.9842L19.4271 16.7244C19.6731 16.4993 19.8086 16.1922 19.8086 15.8594C19.8086 15.2132 19.2829 14.6875 18.6367 14.6875C17.9905 14.6875 17.4648 15.2132 17.4648 15.8594ZM18.0508 20.5859H19.2227V21.7578H18.0508V20.5859Z" fill="#00b5e5"></path>
</svg>
