<svg width="41" height="41" viewBox="0 0 41 41" fill="none" xmlns="http://www.w3.org/2000/svg">
    <circle opacity="0.1" cx="20.5" cy="20.5" r="20.5" fill="#00b5e5"></circle>
    <path d="M22.3129 14.1248H13.1882C11.9847 14.1248 11 15.1094 11 16.3129V23.6871C11 24.8906 11.9847 25.8753 13.1882 25.8753H22.3129C23.5164 25.8753 24.5011 24.8906 24.5011 23.6871V16.3129C24.5011 15.0876 23.5164 14.1248 22.3129 14.1248Z" fill="#00b5e5"></path>
    <path d="M29.3807 15.3282C29.2494 15.3501 29.1181 15.4157 29.0087 15.4814L25.5952 17.4508V22.5273L29.0306 24.4967C29.6652 24.8687 30.4529 24.6499 30.8249 24.0153C30.9343 23.8184 31 23.5995 31 23.3588V16.5974C31 15.7877 30.2341 15.1313 29.3807 15.3282Z" fill="#00b5e5"></path>
</svg>
