  <svg width="41" height="41" viewBox="0 0 41 41" fill="none" xmlns="http://www.w3.org/2000/svg">
      <circle opacity="0.1" cx="20.5" cy="20.5" r="20.5" fill="#00b5e5"></circle>
      <path d="M23.3375 10.5156H21.8741C21.6915 10.51 21.5346 10.3844 21.489 10.2076C21.3504 9.48712 20.7076 8.97504 19.9744 9.00094C19.2367 8.98802 18.5971 9.5084 18.4597 10.2333C18.4122 10.4052 18.2529 10.5221 18.0746 10.5157H16.6626V13.0829H23.3375V10.5156Z" fill="#00b5e5"></path>
      <path d="M27.4451 27.8191V13.1087C27.4467 12.5273 26.9767 12.0548 26.3954 12.0532C26.3688 12.0532 26.3421 12.0541 26.3155 12.056H24.1077V13.3654C24.1077 13.5708 23.9793 13.8532 23.7739 13.8532H16.2005C15.9951 13.8532 15.8924 13.5708 15.8924 13.3654V12.0561H13.6845C13.1048 12.0135 12.6003 12.4491 12.5578 13.0289C12.5558 13.0554 12.5549 13.0821 12.555 13.1087V27.8192C12.5406 28.457 13.0461 28.9858 13.684 29.0001C13.6842 29.0001 13.6844 29.0001 13.6846 29.0001H26.3156C26.9535 28.9861 27.4592 28.4576 27.4452 27.8197C27.4452 27.8195 27.4451 27.8193 27.4451 27.8191ZM17.9205 24.4303L15.9181 26.3044C15.854 26.3811 15.761 26.4275 15.6614 26.4328C15.5541 26.4286 15.4527 26.3825 15.379 26.3044L14.3264 25.2262C14.1865 25.0695 14.198 24.8297 14.3521 24.6871C14.5018 24.5403 14.7414 24.5403 14.8912 24.6871L15.6613 25.5086L17.4071 23.8655C17.5821 23.7447 17.822 23.7887 17.9428 23.9637C18.0413 24.1065 18.0322 24.2976 17.9205 24.4303ZM17.9205 20.3227L15.9181 22.1968C15.854 22.2734 15.761 22.3199 15.6614 22.3252C15.5541 22.3209 15.4527 22.2748 15.379 22.1968L14.3264 21.1185C14.1865 20.9619 14.198 20.722 14.3521 20.5794C14.5018 20.4327 14.7414 20.4327 14.8912 20.5794L15.6613 21.4009L17.4071 19.7579C17.5821 19.6371 17.822 19.681 17.9428 19.8561C18.0413 19.9989 18.0322 20.1899 17.9205 20.3227ZM17.9205 16.215L15.9181 18.0892C15.854 18.1658 15.761 18.2123 15.6614 18.2175C15.5541 18.2133 15.4527 18.1672 15.379 18.0892L14.3264 17.0109C14.1865 16.8542 14.198 16.6144 14.3521 16.4718C14.5018 16.325 14.7414 16.325 14.8912 16.4718L15.6613 17.2933L17.4071 15.6502C17.5821 15.5294 17.822 15.5734 17.9428 15.7484C18.0413 15.8912 18.0322 16.0823 17.9205 16.215ZM25.3913 25.9193H19.4866C19.2739 25.9193 19.1015 25.7469 19.1015 25.5342C19.1015 25.3216 19.2739 25.1491 19.4866 25.1491H25.3913C25.604 25.1491 25.7764 25.3216 25.7764 25.5342C25.7764 25.7469 25.604 25.9193 25.3913 25.9193ZM25.3913 21.8117H19.4866C19.2739 21.8117 19.1015 21.6393 19.1015 21.4266C19.1015 21.2139 19.2739 21.0415 19.4866 21.0415H25.3913C25.604 21.0415 25.7764 21.2139 25.7764 21.4266C25.7764 21.6393 25.604 21.8117 25.3913 21.8117ZM25.3913 17.7041H19.4866C19.2739 17.7041 19.1015 17.5316 19.1015 17.319C19.1015 17.1063 19.2739 16.9338 19.4866 16.9338H25.3913C25.604 16.9338 25.7764 17.1063 25.7764 17.319C25.7764 17.5317 25.604 17.7041 25.3913 17.7041Z" fill="#00b5e5"></path>
  </svg>
