<svg width="41" height="41" viewBox="0 0 41 41" fill="none"
     xmlns="http://www.w3.org/2000/svg">
    <circle opacity="0.1" cx="20.5" cy="20.5" r="20.5" fill="#00b5e5"></circle>
    <path d="M24.1055 21.7695L20.9883 18.9102H21.4453C21.9141 18.9102 22.3593 18.7226 22.6875 18.3945L23.3438 17.7383L23.5196 17.5625C23.8829 17.1992 23.625 16.5664 23.0977 16.5664H19.8281H18.2109C17.5495 16.5664 16.9443 16.9386 16.6458 17.5289L16.1133 18.582C16.0115 18.7832 15.8052 18.9102 15.5796 18.9102H13.3828V27.1133H17.2382L18.9023 28.7773C19.2421 29.1171 19.6875 29.2929 20.1445 29.2929C20.3203 29.2929 20.4961 29.2695 20.6718 29.2109L25.6875 27.1133L24.1055 21.7695Z" fill="#FEC478"></path>
    <path d="M14.5547 27.1133H11.5859C11.2623 27.1133 11 26.8509 11 26.5273V19.4961C11 19.1725 11.2623 18.9102 11.5859 18.9102H14.5547V27.1133Z" fill="#00b5e5"></path>
    <path d="M30.4141 27.1133H26.2734L25.1019 25.9414V20.082L26.2734 18.9102H30.4141C30.7376 18.9102 31 19.1725 31 19.4961V26.5273C31 26.8509 30.7376 27.1133 30.4141 27.1133Z" fill="#00b5e5"></path>
    <path d="M19.3807 18.9102C18.9367 18.9102 18.5308 19.161 18.3323 19.5581L16.5483 23.1262C16.9259 23.2908 17.3299 23.3534 17.7409 23.3093C18.5733 23.2201 19.2745 22.6382 19.6489 21.8894L19.9666 21.2539H21.6867C21.9951 21.2539 22.2972 21.3792 22.5152 21.5972L25.1016 26.7761C25.198 26.9819 25.4602 27.1133 25.6875 27.1133H27.4453V18.9102H19.3807Z" fill="#FEDBAB"></path>
    <path d="M21.5859 11.293V13.0508C21.5859 13.3789 21.3282 13.6367 21 13.6367C20.6718 13.6367 20.4141 13.3789 20.4141 13.0508V11.293C20.4141 10.9648 20.6718 10.707 21 10.707C21.3282 10.707 21.5859 10.9648 21.5859 11.293Z" fill="#FEC478"></path>
    <path d="M17.0701 15.2229L15.8983 14.051C15.6694 13.8221 15.6694 13.4513 15.8983 13.2224C16.1271 12.9936 16.498 12.9936 16.7268 13.2224L17.8987 14.3943C18.1276 14.6232 18.1276 14.994 17.8987 15.2229C17.6698 15.4517 17.299 15.4517 17.0701 15.2229Z" fill="#FEC478"></path>
    <path d="M24.1013 15.2229C23.8725 14.994 23.8725 14.6232 24.1013 14.3943L25.2732 13.2224C25.5021 12.9936 25.8729 12.9936 26.1018 13.2224C26.3306 13.4513 26.3306 13.8221 26.1018 14.051L24.9299 15.2229C24.701 15.4517 24.3302 15.4517 24.1013 15.2229Z" fill="#FEC478"></path>
</svg>
