<svg width="41" height="41" viewBox="0 0 41 41" fill="none" xmlns="http://www.w3.org/2000/svg">
    <circle opacity="0.1" cx="20.5" cy="20.5" r="20.5" fill="#00b5e5"></circle>
    <g clip-path="url(#clip0)"><path d="M25.2053 24.2304C24.5519 23.5853 23.7362 23.5853 23.087 24.2304C22.5917 24.7215 22.0965 25.2126 21.6095 25.712C21.4764 25.8494 21.364 25.8785 21.2017 25.7869C20.8812 25.6121 20.54 25.4706 20.232 25.2792C18.7962 24.3761 17.5934 23.2149 16.528 21.9081C15.9994 21.2589 15.5291 20.5639 15.2004 19.7814C15.1338 19.6233 15.1463 19.5192 15.2753 19.3902C15.7705 18.9116 16.2533 18.4205 16.7402 17.9294C17.4186 17.2469 17.4186 16.4478 16.7361 15.7611C16.349 15.3699 15.962 14.987 15.5749 14.5958C15.1754 14.1963 14.78 13.7926 14.3763 13.3972C13.7229 12.7605 12.9072 12.7605 12.258 13.4014C11.7585 13.8925 11.2799 14.396 10.7722 14.8788C10.3019 15.3241 10.0647 15.8693 10.0147 16.5061C9.93566 17.5424 10.1895 18.5204 10.5475 19.4735C11.2799 21.4462 12.3953 23.1983 13.7479 24.8047C15.5749 26.9772 17.7557 28.696 20.3069 29.9363C21.4556 30.4939 22.6458 30.9226 23.9402 30.9934C24.8308 31.0433 25.6049 30.8186 26.225 30.1235C26.6495 29.6491 27.1281 29.2163 27.5776 28.7626C28.2435 28.0884 28.2476 27.2727 27.5859 26.6068C26.7952 25.8119 26.0003 25.0212 25.2053 24.2304Z" fill="#00b5e5"></path><path d="M24.4105 20.9135L25.9462 20.6513C25.7048 19.2404 25.0389 17.9627 24.0276 16.9473C22.958 15.8777 21.6054 15.2035 20.1155 14.9954L19.899 16.5394C21.0519 16.7017 22.1006 17.2219 22.9288 18.0501C23.7113 18.8326 24.2232 19.8231 24.4105 20.9135Z" fill="#00b5e5"></path><path d="M26.8118 14.2379C25.0389 12.465 22.7957 11.3454 20.3194 11L20.103 12.544C22.2421 12.8437 24.1815 13.8134 25.7131 15.3408C27.1656 16.7932 28.1186 18.6286 28.464 20.6471L29.9998 20.3849C29.5961 18.0459 28.4932 15.9234 26.8118 14.2379Z" fill="#00b5e5"></path></g>
    <defs><clipPath id="clip0"><rect width="20" height="20" fill="white" transform="translate(10 11)"></rect></clipPath></defs>
</svg>
