<svg width="41" height="41" viewBox="0 0 41 41" fill="none" xmlns="http://www.w3.org/2000/svg">
    <circle opacity="0.1" cx="20.5" cy="20.5" r="20.5" fill="#00b5e5"></circle>
    <path d="M29.8281 14.4584V13.1719H30.4141C30.7379 13.1719 31 12.9098 31 12.5859C31 12.2621 30.7379 12 30.4141 12H11.5859C11.2621 12 11 12.2621 11 12.5859C11 12.9098 11.2621 13.1719 11.5859 13.1719H12.1719V14.4584C11.9329 14.5429 11.706 14.6677 11.515 14.8587C10.8295 15.5442 10.8295 16.6589 11.515 17.3444L12.8807 18.671C12.5729 19.3233 12.6725 20.1205 13.2111 20.6591L14.0397 21.4877C14.2686 21.7166 14.6394 21.7166 14.8682 21.4877L18.183 18.1729C18.4119 17.9441 18.4119 17.5732 18.183 17.3444L17.3545 16.5158C16.8154 15.9768 16.0183 15.8777 15.3663 16.1854L14.0006 14.8587C13.8096 14.6678 13.5828 14.5429 13.3438 14.4584V13.1719H28.6562V14.4584C28.4172 14.5429 28.1904 14.6677 27.9994 14.8587L26.6336 16.1854C25.9813 15.8777 25.1841 15.9767 24.6455 16.5158L23.817 17.3444C23.5881 17.5732 23.5881 17.9441 23.817 18.1729L27.1318 21.4877C27.3606 21.7166 27.7314 21.7166 27.9603 21.4877L28.7889 20.6591C29.3275 20.1205 29.4271 19.3233 29.1193 18.671L30.4459 17.3444C31.1314 16.6589 31.1705 15.5442 30.485 14.8587C30.294 14.6677 30.0671 14.5429 29.8281 14.4584Z" fill="#00b5e5"></path>
    <path d="M21 27.2344C17.4404 27.2344 14.5547 28.3227 14.5547 29.6172C14.5547 30.9116 17.4404 32 21 32C24.5596 32 27.4453 30.9116 27.4453 29.6172C27.4453 28.3227 24.5596 27.2344 21 27.2344Z" fill="#00b5e5"></path>
    <path d="M24.233 20.2461L18.2123 26.2833C19.1129 26.136 20.0645 26.0625 21 26.0625C22.8768 26.0625 24.818 26.3557 26.2734 26.9614V22.2866L24.233 20.2461Z" fill="#00b5e5"></path>
    <path d="M17.6401 20.373L15.7266 22.2866V26.9726C15.813 26.9368 15.8909 26.8956 15.9805 26.8618L20.072 22.7591L17.6401 20.373Z" fill="#00b5e5"></path>
</svg>
